<svg xmlns="http://www.w3.org/2000/svg" viewBox="0 0 240 126" fill="none" stroke="none" stroke-width="2" stroke-linecap="round" stroke-linejoin="round">
    <defs>
        <linearGradient id="gradient" x1="62.9%" y1="98.3%" x2="37.1%" y2="1.7%">
            <stop offset="0%" stop-color="#fff3f4"/>
            <stop offset="100%" stop-color="#fff"/>
        </linearGradient>
        <filter id="shadow" x="-20%" y="-20%" width="140%" height="160%" filterUnits="objectBoundingBox">
            <feDropShadow dx="1" dy="1" stdDeviation="0" flood-opacity="1" flood-color="#bbb" />
            <feDropShadow dx="1" dy="1" stdDeviation="2" flood-opacity="0.6" flood-color="#bbb" />
        </filter>
    </defs>

    <!-- Background -->
    <rect x="0" y="0" width="100%" height="100%" fill="url(#gradient)" />

    <!-- Search Box -->
    <rect x="48" y="30" width="144" height="20" rx="6" ry="6" fill="#fff" filter="url(#shadow)" />

    <!-- Search Icon -->
    <svg viewBox="0 0 24 24" stroke="#888" x="55" y="34" width="12" height="12"><path d="M3 10a7 7 0 1 0 14 0a7 7 0 1 0 -14 0" /><path d="M21 21l-6 -6" /></svg>

    <!--
        "Search Tabler Icons..."
        https://vector-text.com/
        Font: Montserrat
        Font Variant: 500 Regular
    -->
    <svg viewBox="2.95 -53.42 755.28 54" fill="#bbb" x="70" y="36.5" width="83.92" height="6"><path d="M22.25 0.58L22.25 0.58Q16.49 0.58 11.23-1.19Q5.98-2.95 2.95-5.76L2.95-5.76L5.62-11.38Q8.5-8.86 12.96-7.2Q17.42-5.54 22.25-5.54L22.25-5.54Q26.64-5.54 29.38-6.55Q32.11-7.56 33.41-9.32Q34.7-11.09 34.7-13.32L34.7-13.32Q34.7-15.91 33.01-17.5Q31.32-19.08 28.62-20.05Q25.92-21.02 22.68-21.74Q19.44-22.46 16.16-23.44Q12.89-24.41 10.19-25.92Q7.49-27.43 5.83-29.99Q4.18-32.54 4.18-36.58L4.18-36.58Q4.18-40.46 6.23-43.74Q8.28-47.02 12.56-49Q16.85-50.98 23.47-50.98L23.47-50.98Q27.86-50.98 32.18-49.82Q36.5-48.67 39.67-46.51L39.67-46.51L37.3-40.75Q34.06-42.91 30.46-43.88Q26.86-44.86 23.47-44.86L23.47-44.86Q19.22-44.86 16.49-43.78Q13.75-42.7 12.49-40.9Q11.23-39.1 11.23-36.86L11.23-36.86Q11.23-34.2 12.92-32.62Q14.62-31.03 17.32-30.1Q20.02-29.16 23.26-28.4Q26.5-27.65 29.77-26.71Q33.05-25.78 35.75-24.26Q38.45-22.75 40.1-20.23Q41.76-17.71 41.76-13.75L41.76-13.75Q41.76-9.94 39.67-6.66Q37.58-3.38 33.23-1.4Q28.87 0.58 22.25 0.58ZM68.26 0.43L68.26 0.43Q62.14 0.43 57.49-2.09Q52.85-4.61 50.29-9Q47.74-13.39 47.74-19.08L47.74-19.08Q47.74-24.77 50.22-29.16Q52.7-33.55 57.06-36.04Q61.42-38.52 66.89-38.52L66.89-38.52Q72.43-38.52 76.68-36.07Q80.93-33.62 83.34-29.2Q85.75-24.77 85.75-18.86L85.75-18.86Q85.75-18.43 85.72-17.86Q85.68-17.28 85.61-16.78L85.61-16.78L53.14-16.78L53.14-21.74L82.01-21.74L79.2-20.02Q79.27-23.69 77.69-26.57Q76.1-29.45 73.33-31.07Q70.56-32.69 66.89-32.69L66.89-32.69Q63.29-32.69 60.48-31.07Q57.67-29.45 56.09-26.53Q54.5-23.62 54.5-19.87L54.5-19.87L54.5-18.72Q54.5-14.9 56.27-11.92Q58.03-8.93 61.2-7.27Q64.37-5.62 68.47-5.62L68.47-5.62Q71.86-5.62 74.63-6.77Q77.4-7.92 79.49-10.22L79.49-10.22L83.3-5.76Q80.71-2.74 76.86-1.15Q73.01 0.43 68.26 0.43ZM125.57 0L119.02 0L119.02-8.06L118.66-9.58L118.66-23.33Q118.66-27.72 116.1-30.13Q113.54-32.54 108.43-32.54L108.43-32.54Q105.05-32.54 101.81-31.43Q98.57-30.31 96.34-28.44L96.34-28.44L93.46-33.62Q96.41-36 100.55-37.26Q104.69-38.52 109.22-38.52L109.22-38.52Q117.07-38.52 121.32-34.7Q125.57-30.89 125.57-23.04L125.57-23.04L125.57 0ZM106.49 0.43L106.49 0.43Q102.24 0.43 99.04-1.01Q95.83-2.45 94.1-5Q92.38-7.56 92.38-10.8L92.38-10.8Q92.38-13.9 93.85-16.42Q95.33-18.94 98.68-20.45Q102.02-21.96 107.71-21.96L107.71-21.96L119.81-21.96L119.81-16.99L108-16.99Q102.82-16.99 101.02-15.26Q99.22-13.54 99.22-11.09L99.22-11.09Q99.22-8.28 101.45-6.59Q103.68-4.9 107.64-4.9L107.64-4.9Q111.53-4.9 114.44-6.62Q117.36-8.35 118.66-11.66L118.66-11.66L120.02-6.91Q118.66-3.53 115.2-1.55Q111.74 0.43 106.49 0.43ZM145.3 0L138.38 0L138.38-38.16L145.01-38.16L145.01-27.79L144.36-30.38Q145.94-34.34 149.69-36.43Q153.43-38.52 158.9-38.52L158.9-38.52L158.9-31.82Q158.47-31.9 158.08-31.9Q157.68-31.9 157.32-31.9L157.32-31.9Q151.78-31.9 148.54-28.58Q145.3-25.27 145.3-19.01L145.3-19.01L145.3 0ZM184.54 0.43L184.54 0.43Q178.7 0.43 174.13-2.09Q169.56-4.61 166.97-9Q164.38-13.39 164.38-19.08L164.38-19.08Q164.38-24.77 166.97-29.16Q169.56-33.55 174.13-36.04Q178.7-38.52 184.54-38.52L184.54-38.52Q189.72-38.52 193.79-36.47Q197.86-34.42 200.09-30.38L200.09-30.38L194.83-27Q192.96-29.81 190.26-31.14Q187.56-32.47 184.46-32.47L184.46-32.47Q180.72-32.47 177.77-30.82Q174.82-29.16 173.09-26.17Q171.36-23.18 171.36-19.08L171.36-19.08Q171.36-14.98 173.09-11.95Q174.82-8.93 177.77-7.27Q180.72-5.62 184.46-5.62L184.46-5.62Q187.56-5.62 190.26-6.95Q192.96-8.28 194.83-11.09L194.83-11.09L200.09-7.78Q197.86-3.82 193.79-1.69Q189.72 0.43 184.54 0.43ZM215.93 0L209.02 0L209.02-53.42L215.93-53.42L215.93-27.86L214.56-30.6Q216.43-34.34 220.32-36.43Q224.21-38.52 229.39-38.52L229.39-38.52Q234.07-38.52 237.64-36.72Q241.2-34.92 243.22-31.25Q245.23-27.58 245.23-21.96L245.23-21.96L245.23 0L238.32 0L238.32-21.17Q238.32-26.71 235.62-29.52Q232.92-32.33 228.02-32.33L228.02-32.33Q224.35-32.33 221.62-30.89Q218.88-29.45 217.4-26.64Q215.93-23.83 215.93-19.66L215.93-19.66L215.93 0ZM295.56 0L288.43 0L288.43-44.14L271.15-44.14L271.15-50.4L312.84-50.4L312.84-44.14L295.56-44.14L295.56 0ZM349.92 0L343.37 0L343.37-8.06L343.01-9.58L343.01-23.33Q343.01-27.72 340.45-30.13Q337.9-32.54 332.78-32.54L332.78-32.54Q329.4-32.54 326.16-31.43Q322.92-30.31 320.69-28.44L320.69-28.44L317.81-33.62Q320.76-36 324.9-37.26Q329.04-38.52 333.58-38.52L333.58-38.52Q341.42-38.52 345.67-34.7Q349.92-30.89 349.92-23.04L349.92-23.04L349.92 0ZM330.84 0.43L330.84 0.43Q326.59 0.43 323.39-1.01Q320.18-2.45 318.46-5Q316.73-7.56 316.73-10.8L316.73-10.8Q316.73-13.9 318.2-16.42Q319.68-18.94 323.03-20.45Q326.38-21.96 332.06-21.96L332.06-21.96L344.16-21.96L344.16-16.99L332.35-16.99Q327.17-16.99 325.37-15.26Q323.57-13.54 323.57-11.09L323.57-11.09Q323.57-8.28 325.8-6.59Q328.03-4.9 331.99-4.9L331.99-4.9Q335.88-4.9 338.8-6.62Q341.71-8.35 343.01-11.66L343.01-11.66L344.38-6.91Q343.01-3.53 339.55-1.55Q336.1 0.43 330.84 0.43ZM382.97 0.43L382.97 0.43Q378.07 0.43 374.15-1.76Q370.22-3.96 367.96-8.28Q365.69-12.6 365.69-19.08L365.69-19.08Q365.69-25.56 368.03-29.88Q370.37-34.2 374.29-36.36Q378.22-38.52 382.97-38.52L382.97-38.52Q388.58-38.52 392.9-36.07Q397.22-33.62 399.74-29.27Q402.26-24.91 402.26-19.08L402.26-19.08Q402.26-13.25 399.74-8.86Q397.22-4.46 392.9-2.02Q388.58 0.43 382.97 0.43ZM369.36 0L362.74 0L362.74-53.42L369.65-53.42L369.65-28.01L368.93-19.15L369.36-10.3L369.36 0ZM382.39-5.62L382.39-5.62Q386.06-5.62 388.98-7.27Q391.9-8.93 393.59-11.99Q395.28-15.05 395.28-19.08L395.28-19.08Q395.28-23.18 393.59-26.17Q391.9-29.16 388.98-30.82Q386.06-32.47 382.39-32.47L382.39-32.47Q378.79-32.47 375.88-30.82Q372.96-29.16 371.27-26.17Q369.58-23.18 369.58-19.08L369.58-19.08Q369.58-15.05 371.27-11.99Q372.96-8.93 375.88-7.27Q378.79-5.62 382.39-5.62ZM418.75 0L411.84 0L411.84-53.42L418.75-53.42L418.75 0ZM448.92 0.43L448.92 0.43Q442.8 0.43 438.16-2.09Q433.51-4.61 430.96-9Q428.4-13.39 428.4-19.08L428.4-19.08Q428.4-24.77 430.88-29.16Q433.37-33.55 437.72-36.04Q442.08-38.52 447.55-38.52L447.55-38.52Q453.1-38.52 457.34-36.07Q461.59-33.62 464-29.2Q466.42-24.77 466.42-18.86L466.42-18.86Q466.42-18.43 466.38-17.86Q466.34-17.28 466.27-16.78L466.27-16.78L433.8-16.78L433.8-21.74L462.67-21.74L459.86-20.02Q459.94-23.69 458.35-26.57Q456.77-29.45 454-31.07Q451.22-32.69 447.55-32.69L447.55-32.69Q443.95-32.69 441.14-31.07Q438.34-29.45 436.75-26.53Q435.17-23.62 435.17-19.87L435.17-19.87L435.17-18.72Q435.17-14.9 436.93-11.92Q438.7-8.93 441.86-7.27Q445.03-5.62 449.14-5.62L449.14-5.62Q452.52-5.62 455.29-6.77Q458.06-7.92 460.15-10.22L460.15-10.22L463.97-5.76Q461.38-2.74 457.52-1.15Q453.67 0.43 448.92 0.43ZM482.9 0L475.99 0L475.99-38.16L482.62-38.16L482.62-27.79L481.97-30.38Q483.55-34.34 487.3-36.43Q491.04-38.52 496.51-38.52L496.51-38.52L496.51-31.82Q496.08-31.9 495.68-31.9Q495.29-31.9 494.93-31.9L494.93-31.9Q489.38-31.9 486.14-28.58Q482.9-25.27 482.9-19.01L482.9-19.01L482.9 0ZM533.09 0L525.89 0L525.89-50.4L533.09-50.4L533.09 0ZM563.83 0.43L563.83 0.43Q558 0.43 553.43-2.09Q548.86-4.61 546.26-9Q543.67-13.39 543.67-19.08L543.67-19.08Q543.67-24.77 546.26-29.16Q548.86-33.55 553.43-36.04Q558-38.52 563.83-38.52L563.83-38.52Q569.02-38.52 573.08-36.47Q577.15-34.42 579.38-30.38L579.38-30.38L574.13-27Q572.26-29.81 569.56-31.14Q566.86-32.47 563.76-32.47L563.76-32.47Q560.02-32.47 557.06-30.82Q554.11-29.16 552.38-26.17Q550.66-23.18 550.66-19.08L550.66-19.08Q550.66-14.98 552.38-11.95Q554.11-8.93 557.06-7.27Q560.02-5.62 563.76-5.62L563.76-5.62Q566.86-5.62 569.56-6.95Q572.26-8.28 574.13-11.09L574.13-11.09L579.38-7.78Q577.15-3.82 573.08-1.69Q569.02 0.43 563.83 0.43ZM604.66 0.43L604.66 0.43Q598.9 0.43 594.43-2.09Q589.97-4.61 587.38-9.04Q584.78-13.46 584.78-19.08L584.78-19.08Q584.78-24.77 587.38-29.16Q589.97-33.55 594.43-36.04Q598.9-38.52 604.66-38.52L604.66-38.52Q610.34-38.52 614.84-36.04Q619.34-33.55 621.9-29.2Q624.46-24.84 624.46-19.08L624.46-19.08Q624.46-13.39 621.9-9Q619.34-4.61 614.84-2.09Q610.34 0.43 604.66 0.43ZM604.66-5.62L604.66-5.62Q608.33-5.62 611.24-7.27Q614.16-8.93 615.82-11.99Q617.47-15.05 617.47-19.08L617.47-19.08Q617.47-23.18 615.82-26.17Q614.16-29.16 611.24-30.82Q608.33-32.47 604.66-32.47L604.66-32.47Q600.98-32.47 598.1-30.82Q595.22-29.16 593.5-26.17Q591.77-23.18 591.77-19.08L591.77-19.08Q591.77-15.05 593.5-11.99Q595.22-8.93 598.1-7.27Q600.98-5.62 604.66-5.62ZM640.94 0L634.03 0L634.03-38.16L640.66-38.16L640.66-27.86L639.58-30.6Q641.45-34.34 645.34-36.43Q649.22-38.52 654.41-38.52L654.41-38.52Q659.09-38.52 662.65-36.72Q666.22-34.92 668.23-31.25Q670.25-27.58 670.25-21.96L670.25-21.96L670.25 0L663.34 0L663.34-21.17Q663.34-26.71 660.64-29.52Q657.94-32.33 653.04-32.33L653.04-32.33Q649.37-32.33 646.63-30.89Q643.9-29.45 642.42-26.64Q640.94-23.83 640.94-19.66L640.94-19.66L640.94 0ZM694.01 0.43L694.01 0.43Q689.26 0.43 684.97-0.86Q680.69-2.16 678.24-4.03L678.24-4.03L681.12-9.5Q683.57-7.85 687.17-6.7Q690.77-5.54 694.51-5.54L694.51-5.54Q699.34-5.54 701.46-6.91Q703.58-8.28 703.58-10.73L703.58-10.73Q703.58-12.53 702.29-13.54Q700.99-14.54 698.87-15.05Q696.74-15.55 694.15-15.95Q691.56-16.34 688.97-16.96Q686.38-17.57 684.22-18.68Q682.06-19.8 680.76-21.78Q679.46-23.76 679.46-27.07L679.46-27.07Q679.46-30.53 681.41-33.12Q683.35-35.71 686.92-37.12Q690.48-38.52 695.38-38.52L695.38-38.52Q699.12-38.52 702.97-37.62Q706.82-36.72 709.27-35.06L709.27-35.06L706.32-29.59Q703.73-31.32 700.92-31.97Q698.11-32.62 695.3-32.62L695.3-32.62Q690.77-32.62 688.54-31.14Q686.3-29.66 686.3-27.36L686.3-27.36Q686.3-25.42 687.64-24.37Q688.97-23.33 691.09-22.75Q693.22-22.18 695.81-21.78Q698.4-21.38 700.99-20.77Q703.58-20.16 705.71-19.08Q707.83-18 709.16-16.06Q710.5-14.11 710.5-10.87L710.5-10.87Q710.5-7.42 708.48-4.9Q706.46-2.38 702.79-0.97Q699.12 0.43 694.01 0.43ZM720.79 0.43L720.79 0.43Q718.78 0.43 717.34-0.97Q715.9-2.38 715.9-4.54L715.9-4.54Q715.9-6.7 717.34-8.06Q718.78-9.43 720.79-9.43L720.79-9.43Q722.74-9.43 724.14-8.06Q725.54-6.7 725.54-4.54L725.54-4.54Q725.54-2.38 724.14-0.97Q722.74 0.43 720.79 0.43ZM737.14 0.43L737.14 0.43Q735.12 0.43 733.68-0.97Q732.24-2.38 732.24-4.54L732.24-4.54Q732.24-6.7 733.68-8.06Q735.12-9.43 737.14-9.43L737.14-9.43Q739.08-9.43 740.48-8.06Q741.89-6.7 741.89-4.54L741.89-4.54Q741.89-2.38 740.48-0.97Q739.08 0.43 737.14 0.43ZM753.48 0.43L753.48 0.43Q751.46 0.43 750.02-0.97Q748.58-2.38 748.58-4.54L748.58-4.54Q748.58-6.7 750.02-8.06Q751.46-9.43 753.48-9.43L753.48-9.43Q755.42-9.43 756.83-8.06Q758.23-6.7 758.23-4.54L758.23-4.54Q758.23-2.38 756.83-0.97Q755.42 0.43 753.48 0.43Z"></path></svg>

    <!-- Icons Group -->
    <g stroke="#fe7792">
        <!-- Gear -->
        <svg viewBox="0 0 24 24" x="38" y="5" width="20" height="20"><path d="M10.325 4.317c.426 -1.756 2.924 -1.756 3.35 0a1.724 1.724 0 0 0 2.573 1.066c1.543 -.94 3.31 .826 2.37 2.37a1.724 1.724 0 0 0 1.065 2.572c1.756 .426 1.756 2.924 0 3.35a1.724 1.724 0 0 0 -1.066 2.573c.94 1.543 -.826 3.31 -2.37 2.37a1.724 1.724 0 0 0 -2.572 1.065c-.426 1.756 -2.924 1.756 -3.35 0a1.724 1.724 0 0 0 -2.573 -1.066c-1.543 .94 -3.31 -.826 -2.37 -2.37a1.724 1.724 0 0 0 -1.065 -2.572c-1.756 -.426 -1.756 -2.924 0 -3.35a1.724 1.724 0 0 0 1.066 -2.573c-.94 -1.543 .826 -3.31 2.37 -2.37c1 .608 2.296 .07 2.572 -1.065" /><path d="M9 12a3 3 0 1 0 6 0a3 3 0 0 0 -6 0" /></svg>

        <!-- Heart -->
        <svg viewBox="0 0 24 24" x="18" y="24" width="20" height="20" transform="rotate(-5 28 34)"><path d="M19.5 12.572l-7.5 7.428l-7.5 -7.428a5 5 0 1 1 7.5 -6.566a5 5 0 1 1 7.5 6.572" /></svg>

        <!-- Folder -->
        <svg viewBox="0 0 24 24" x="24" y="50" width="20" height="20" transform="rotate(-10 34 60)"><path d="M5 4h4l3 3h7a2 2 0 0 1 2 2v8a2 2 0 0 1 -2 2h-14a2 2 0 0 1 -2 -2v-11a2 2 0 0 1 2 -2" /></svg>

        <!-- Chart -->
        <svg viewBox="0 0 24 24" x="182" y="5" width="20" height="20"><path d="M3 13a1 1 0 0 1 1 -1h4a1 1 0 0 1 1 1v6a1 1 0 0 1 -1 1h-4a1 1 0 0 1 -1 -1l0 -6" /><path d="M15 9a1 1 0 0 1 1 -1h4a1 1 0 0 1 1 1v10a1 1 0 0 1 -1 1h-4a1 1 0 0 1 -1 -1l0 -10" /><path d="M9 5a1 1 0 0 1 1 -1h4a1 1 0 0 1 1 1v14a1 1 0 0 1 -1 1h-4a1 1 0 0 1 -1 -1l0 -14" /><path d="M4 20h14" /></svg>

        <!-- Cloud -->
        <svg viewBox="0 0 24 24" x="202" y="24" width="20" height="20" transform="rotate(5 212 34)"><path d="M6.657 18c-2.572 0 -4.657 -2.007 -4.657 -4.483c0 -2.475 2.085 -4.482 4.657 -4.482c.393 -1.762 1.794 -3.2 3.675 -3.773c1.88 -.572 3.956 -.193 5.444 1c1.488 1.19 2.162 3.007 1.77 4.769h.99c1.913 0 3.464 1.56 3.464 3.486c0 1.927 -1.551 3.487 -3.465 3.487h-11.878" /></svg>

        <!-- Bell -->
        <svg viewBox="0 0 24 24" x="196" y="50" width="20" height="20" transform="rotate(10 206 60)"><path d="M10 5a2 2 0 1 1 4 0a7 7 0 0 1 4 6v3a4 4 0 0 0 2 3h-16a4 4 0 0 0 2 -3v-3a7 7 0 0 1 4 -6" /><path d="M9 17v1a3 3 0 0 0 6 0v-1" /></svg>
    </g>

    <!--
        "Icon Search"
        https://vector-text.com/
        Font: Montserrat
        Font Variant: 700 Regular
    -->
    <svg viewBox="5.98 -53.42 431.64 54.29" fill="#ff355d" x="0" y="70" width="240" height="12"><path d="M17.64 0L5.98 0L5.98-50.4L17.64-50.4L17.64 0ZM47.52 0.58L47.52 0.58Q41.26 0.58 36.36-1.98Q31.46-4.54 28.69-9.07Q25.92-13.61 25.92-19.37L25.92-19.37Q25.92-25.2 28.69-29.7Q31.46-34.2 36.36-36.76Q41.26-39.31 47.52-39.31L47.52-39.31Q53.64-39.31 58.18-36.76Q62.71-34.2 64.87-29.45L64.87-29.45L56.16-24.77Q54.65-27.5 52.38-28.8Q50.11-30.1 47.45-30.1L47.45-30.1Q44.57-30.1 42.26-28.8Q39.96-27.5 38.63-25.13Q37.3-22.75 37.3-19.37L37.3-19.37Q37.3-15.98 38.63-13.61Q39.96-11.23 42.26-9.94Q44.57-8.64 47.45-8.64L47.45-8.64Q50.11-8.64 52.38-9.9Q54.65-11.16 56.16-13.97L56.16-13.97L64.87-9.22Q62.71-4.54 58.18-1.98Q53.64 0.58 47.52 0.58ZM89.78 0.58L89.78 0.58Q83.59 0.58 78.8-2.02Q74.02-4.61 71.24-9.11Q68.47-13.61 68.47-19.37L68.47-19.37Q68.47-25.2 71.24-29.7Q74.02-34.2 78.8-36.76Q83.59-39.31 89.78-39.31L89.78-39.31Q95.9-39.31 100.73-36.76Q105.55-34.2 108.29-29.74Q111.02-25.27 111.02-19.37L111.02-19.37Q111.02-13.61 108.29-9.11Q105.55-4.61 100.73-2.02Q95.9 0.58 89.78 0.58ZM89.78-8.64L89.78-8.64Q92.59-8.64 94.82-9.94Q97.06-11.23 98.35-13.64Q99.65-16.06 99.65-19.37L99.65-19.37Q99.65-22.75 98.35-25.13Q97.06-27.5 94.82-28.8Q92.59-30.1 89.78-30.1L89.78-30.1Q86.98-30.1 84.74-28.8Q82.51-27.5 81.18-25.13Q79.85-22.75 79.85-19.37L79.85-19.37Q79.85-16.06 81.18-13.64Q82.51-11.23 84.74-9.94Q86.98-8.64 89.78-8.64ZM129.74 0L118.51 0L118.51-38.74L129.24-38.74L129.24-28.01L127.22-31.25Q129.31-35.14 133.2-37.22Q137.09-39.31 142.06-39.31L142.06-39.31Q146.66-39.31 150.3-37.48Q153.94-35.64 156.02-31.86Q158.11-28.08 158.11-22.18L158.11-22.18L158.11 0L146.88 0L146.88-20.45Q146.88-25.13 144.83-27.36Q142.78-29.59 139.03-29.59L139.03-29.59Q136.37-29.59 134.24-28.48Q132.12-27.36 130.93-25.06Q129.74-22.75 129.74-19.15L129.74-19.15L129.74 0ZM205.99 0.86L205.99 0.86Q199.94 0.86 194.4-0.76Q188.86-2.38 185.47-4.97L185.47-4.97L189.43-13.75Q192.67-11.45 197.1-9.97Q201.53-8.5 206.06-8.5L206.06-8.5Q209.52-8.5 211.64-9.18Q213.77-9.86 214.78-11.09Q215.78-12.31 215.78-13.9L215.78-13.9Q215.78-15.91 214.2-17.1Q212.62-18.29 210.02-19.04Q207.43-19.8 204.3-20.48Q201.17-21.17 198.04-22.18Q194.9-23.18 192.31-24.77Q189.72-26.35 188.1-28.94Q186.48-31.54 186.48-35.57L186.48-35.57Q186.48-39.89 188.82-43.45Q191.16-47.02 195.88-49.14Q200.59-51.26 207.72-51.26L207.72-51.26Q212.47-51.26 217.08-50.15Q221.69-49.03 225.22-46.8L225.22-46.8L221.62-37.94Q218.09-39.96 214.56-40.93Q211.03-41.9 207.65-41.9L207.65-41.9Q204.26-41.9 202.1-41.11Q199.94-40.32 199.01-39.06Q198.07-37.8 198.07-36.14L198.07-36.14Q198.07-34.2 199.66-33.01Q201.24-31.82 203.83-31.1Q206.42-30.38 209.56-29.66Q212.69-28.94 215.82-28.01Q218.95-27.07 221.54-25.49Q224.14-23.9 225.76-21.31Q227.38-18.72 227.38-14.76L227.38-14.76Q227.38-10.51 225-6.98Q222.62-3.46 217.91-1.3Q213.19 0.86 205.99 0.86ZM253.8 0.58L253.8 0.58Q247.18 0.58 242.17-2.02Q237.17-4.61 234.43-9.11Q231.7-13.61 231.7-19.37L231.7-19.37Q231.7-25.2 234.4-29.7Q237.1-34.2 241.78-36.76Q246.46-39.31 252.36-39.31L252.36-39.31Q258.05-39.31 262.62-36.9Q267.19-34.49 269.86-29.99Q272.52-25.49 272.52-19.22L272.52-19.22Q272.52-18.58 272.45-17.75Q272.38-16.92 272.3-16.2L272.3-16.2L240.84-16.2L240.84-22.75L266.4-22.75L262.08-20.81Q262.08-23.83 260.86-26.06Q259.63-28.3 257.47-29.56Q255.31-30.82 252.43-30.82L252.43-30.82Q249.55-30.82 247.36-29.56Q245.16-28.3 243.94-26.03Q242.71-23.76 242.71-20.66L242.71-20.66L242.71-18.94Q242.71-15.77 244.12-13.36Q245.52-10.94 248.08-9.68Q250.63-8.42 254.09-8.42L254.09-8.42Q257.18-8.42 259.52-9.36Q261.86-10.3 263.81-12.17L263.81-12.17L269.78-5.69Q267.12-2.66 263.09-1.04Q259.06 0.58 253.8 0.58ZM314.28 0L303.77 0L303.77-7.56L303.05-9.22L303.05-22.75Q303.05-26.35 300.85-28.37Q298.66-30.38 294.12-30.38L294.12-30.38Q291.02-30.38 288.04-29.41Q285.05-28.44 282.96-26.78L282.96-26.78L278.93-34.63Q282.1-36.86 286.56-38.09Q291.02-39.31 295.63-39.31L295.63-39.31Q304.49-39.31 309.38-35.14Q314.28-30.96 314.28-22.1L314.28-22.1L314.28 0ZM291.96 0.58L291.96 0.58Q287.42 0.58 284.18-0.97Q280.94-2.52 279.22-5.18Q277.49-7.85 277.49-11.16L277.49-11.16Q277.49-14.62 279.18-17.21Q280.87-19.8 284.54-21.28Q288.22-22.75 294.12-22.75L294.12-22.75L304.42-22.75L304.42-16.2L295.34-16.2Q291.38-16.2 289.91-14.9Q288.43-13.61 288.43-11.66L288.43-11.66Q288.43-9.5 290.12-8.24Q291.82-6.98 294.77-6.98L294.77-6.98Q297.58-6.98 299.81-8.32Q302.04-9.65 303.05-12.24L303.05-12.24L304.78-7.06Q303.55-3.31 300.31-1.37Q297.07 0.58 291.96 0.58ZM335.66 0L324.43 0L324.43-38.74L335.16-38.74L335.16-27.79L333.65-30.96Q335.38-35.06 339.19-37.19Q343.01-39.31 348.48-39.31L348.48-39.31L348.48-28.94Q347.76-29.02 347.18-29.05Q346.61-29.09 345.96-29.09L345.96-29.09Q341.35-29.09 338.51-26.46Q335.66-23.83 335.66-18.29L335.66-18.29L335.66 0ZM374.18 0.58L374.18 0.58Q367.92 0.58 363.02-1.98Q358.13-4.54 355.36-9.07Q352.58-13.61 352.58-19.37L352.58-19.37Q352.58-25.2 355.36-29.7Q358.13-34.2 363.02-36.76Q367.92-39.31 374.18-39.31L374.18-39.31Q380.3-39.31 384.84-36.76Q389.38-34.2 391.54-29.45L391.54-29.45L382.82-24.77Q381.31-27.5 379.04-28.8Q376.78-30.1 374.11-30.1L374.11-30.1Q371.23-30.1 368.93-28.8Q366.62-27.5 365.29-25.13Q363.96-22.75 363.96-19.37L363.96-19.37Q363.96-15.98 365.29-13.61Q366.62-11.23 368.93-9.94Q371.23-8.64 374.11-8.64L374.11-8.64Q376.78-8.64 379.04-9.9Q381.31-11.16 382.82-13.97L382.82-13.97L391.54-9.22Q389.38-4.54 384.84-1.98Q380.3 0.58 374.18 0.58ZM409.25 0L398.02 0L398.02-53.42L409.25-53.42L409.25-28.01L406.73-31.25Q408.82-35.14 412.7-37.22Q416.59-39.31 421.56-39.31L421.56-39.31Q426.17-39.31 429.8-37.48Q433.44-35.64 435.53-31.86Q437.62-28.08 437.62-22.18L437.62-22.18L437.62 0L426.38 0L426.38-20.45Q426.38-25.13 424.33-27.36Q422.28-29.59 418.54-29.59L418.54-29.59Q415.87-29.59 413.75-28.48Q411.62-27.36 410.44-25.06Q409.25-22.75 409.25-19.15L409.25-19.15L409.25 0Z"></path></svg>

    <!--
        "Find any Tabler icon easily."
        https://vector-text.com/
        Font: Montserrat
        Font Variant: 500 Regular
    -->
    <svg viewBox="7.56 -54.5 966.82 68.9" fill="#555" x="0" y="88" width="240" height="6"><path d="M14.76 0L7.56 0L7.56-50.4L43.13-50.4L43.13-44.14L14.76-44.14L14.76 0ZM40.03-20.38L14.04-20.38L14.04-26.57L40.03-26.57L40.03-20.38ZM59.18 0L52.27 0L52.27-38.16L59.18-38.16L59.18 0ZM55.73-45.5L55.73-45.5Q53.71-45.5 52.38-46.8Q51.05-48.1 51.05-49.97L51.05-49.97Q51.05-51.91 52.38-53.21Q53.71-54.5 55.73-54.5L55.73-54.5Q57.74-54.5 59.08-53.24Q60.41-51.98 60.41-50.11L60.41-50.11Q60.41-48.17 59.11-46.84Q57.82-45.5 55.73-45.5ZM79.27 0L72.36 0L72.36-38.16L78.98-38.16L78.98-27.86L77.9-30.6Q79.78-34.34 83.66-36.43Q87.55-38.52 92.74-38.52L92.74-38.52Q97.42-38.52 100.98-36.72Q104.54-34.92 106.56-31.25Q108.58-27.58 108.58-21.96L108.58-21.96L108.58 0L101.66 0L101.66-21.17Q101.66-26.71 98.96-29.52Q96.26-32.33 91.37-32.33L91.37-32.33Q87.7-32.33 84.96-30.89Q82.22-29.45 80.75-26.64Q79.27-23.83 79.27-19.66L79.27-19.66L79.27 0ZM137.16 0.43L137.16 0.43Q131.62 0.43 127.26-2.02Q122.9-4.46 120.38-8.86Q117.86-13.25 117.86-19.08L117.86-19.08Q117.86-24.91 120.38-29.27Q122.9-33.62 127.26-36.07Q131.62-38.52 137.16-38.52L137.16-38.52Q141.98-38.52 145.87-36.36Q149.76-34.2 152.1-29.88Q154.44-25.56 154.44-19.08L154.44-19.08Q154.44-12.6 152.17-8.28Q149.9-3.96 146.02-1.76Q142.13 0.43 137.16 0.43ZM137.74-5.62L137.74-5.62Q141.34-5.62 144.25-7.27Q147.17-8.93 148.86-11.99Q150.55-15.05 150.55-19.08L150.55-19.08Q150.55-23.18 148.86-26.17Q147.17-29.16 144.25-30.82Q141.34-32.47 137.74-32.47L137.74-32.47Q134.06-32.47 131.18-30.82Q128.3-29.16 126.58-26.17Q124.85-23.18 124.85-19.08L124.85-19.08Q124.85-15.05 126.58-11.99Q128.3-8.93 131.18-7.27Q134.06-5.62 137.74-5.62ZM157.39 0L150.77 0L150.77-10.3L151.2-19.15L150.48-28.01L150.48-53.42L157.39-53.42L157.39 0ZM220.1 0L213.55 0L213.55-8.06L213.19-9.58L213.19-23.33Q213.19-27.72 210.64-30.13Q208.08-32.54 202.97-32.54L202.97-32.54Q199.58-32.54 196.34-31.43Q193.1-30.31 190.87-28.44L190.87-28.44L187.99-33.62Q190.94-36 195.08-37.26Q199.22-38.52 203.76-38.52L203.76-38.52Q211.61-38.52 215.86-34.7Q220.1-30.89 220.1-23.04L220.1-23.04L220.1 0ZM201.02 0.43L201.02 0.43Q196.78 0.43 193.57-1.01Q190.37-2.45 188.64-5Q186.91-7.56 186.91-10.8L186.91-10.8Q186.91-13.9 188.39-16.42Q189.86-18.94 193.21-20.45Q196.56-21.96 202.25-21.96L202.25-21.96L214.34-21.96L214.34-16.99L202.54-16.99Q197.35-16.99 195.55-15.26Q193.75-13.54 193.75-11.09L193.75-11.09Q193.75-8.28 195.98-6.59Q198.22-4.9 202.18-4.9L202.18-4.9Q206.06-4.9 208.98-6.62Q211.9-8.35 213.19-11.66L213.19-11.66L214.56-6.91Q213.19-3.53 209.74-1.55Q206.28 0.43 201.02 0.43ZM239.83 0L232.92 0L232.92-38.16L239.54-38.16L239.54-27.86L238.46-30.6Q240.34-34.34 244.22-36.43Q248.11-38.52 253.3-38.52L253.3-38.52Q257.98-38.52 261.54-36.72Q265.1-34.92 267.12-31.25Q269.14-27.58 269.14-21.96L269.14-21.96L269.14 0L262.22 0L262.22-21.17Q262.22-26.71 259.52-29.52Q256.82-32.33 251.93-32.33L251.93-32.33Q248.26-32.33 245.52-30.89Q242.78-29.45 241.31-26.64Q239.83-23.83 239.83-19.66L239.83-19.66L239.83 0ZM283.61 14.4L283.61 14.4Q280.87 14.4 278.28 13.5Q275.69 12.6 273.82 10.87L273.82 10.87L276.77 5.69Q278.21 7.06 279.94 7.78Q281.66 8.5 283.61 8.5L283.61 8.5Q286.13 8.5 287.78 7.2Q289.44 5.9 290.88 2.59L290.88 2.59L293.26-2.66L293.98-3.53L308.95-38.16L315.72-38.16L297.22 3.82Q295.56 7.85 293.51 10.15Q291.46 12.46 289.01 13.43Q286.56 14.4 283.61 14.4ZM297.29-4.18L292.68 1.22L275.26-38.16L282.46-38.16L297.29-4.18ZM359.71 0L352.58 0L352.58-44.14L335.3-44.14L335.3-50.4L376.99-50.4L376.99-44.14L359.71-44.14L359.71 0ZM414.07 0L407.52 0L407.52-8.06L407.16-9.58L407.16-23.33Q407.16-27.72 404.6-30.13Q402.05-32.54 396.94-32.54L396.94-32.54Q393.55-32.54 390.31-31.43Q387.07-30.31 384.84-28.44L384.84-28.44L381.96-33.62Q384.91-36 389.05-37.26Q393.19-38.52 397.73-38.52L397.73-38.52Q405.58-38.52 409.82-34.7Q414.07-30.89 414.07-23.04L414.07-23.04L414.07 0ZM394.99 0.43L394.99 0.43Q390.74 0.43 387.54-1.01Q384.34-2.45 382.61-5Q380.88-7.56 380.88-10.8L380.88-10.8Q380.88-13.9 382.36-16.42Q383.83-18.94 387.18-20.45Q390.53-21.96 396.22-21.96L396.22-21.96L408.31-21.96L408.31-16.99L396.5-16.99Q391.32-16.99 389.52-15.26Q387.72-13.54 387.72-11.09L387.72-11.09Q387.72-8.28 389.95-6.59Q392.18-4.9 396.14-4.9L396.14-4.9Q400.03-4.9 402.95-6.62Q405.86-8.35 407.16-11.66L407.16-11.66L408.53-6.91Q407.16-3.53 403.7-1.55Q400.25 0.43 394.99 0.43ZM447.12 0.43L447.12 0.43Q442.22 0.43 438.3-1.76Q434.38-3.96 432.11-8.28Q429.84-12.6 429.84-19.08L429.84-19.08Q429.84-25.56 432.18-29.88Q434.52-34.2 438.44-36.36Q442.37-38.52 447.12-38.52L447.12-38.52Q452.74-38.52 457.06-36.07Q461.38-33.62 463.9-29.27Q466.42-24.91 466.42-19.08L466.42-19.08Q466.42-13.25 463.9-8.86Q461.38-4.46 457.06-2.02Q452.74 0.43 447.12 0.43ZM433.51 0L426.89 0L426.89-53.42L433.8-53.42L433.8-28.01L433.08-19.15L433.51-10.3L433.51 0ZM446.54-5.62L446.54-5.62Q450.22-5.62 453.13-7.27Q456.05-8.93 457.74-11.99Q459.43-15.05 459.43-19.08L459.43-19.08Q459.43-23.18 457.74-26.17Q456.05-29.16 453.13-30.82Q450.22-32.47 446.54-32.47L446.54-32.47Q442.94-32.47 440.03-30.82Q437.11-29.16 435.42-26.17Q433.73-23.18 433.73-19.08L433.73-19.08Q433.73-15.05 435.42-11.99Q437.11-8.93 440.03-7.27Q442.94-5.62 446.54-5.62ZM482.9 0L475.99 0L475.99-53.42L482.9-53.42L482.9 0ZM513.07 0.43L513.07 0.43Q506.95 0.43 502.31-2.09Q497.66-4.61 495.11-9Q492.55-13.39 492.55-19.08L492.55-19.08Q492.55-24.77 495.04-29.16Q497.52-33.55 501.88-36.04Q506.23-38.52 511.7-38.52L511.7-38.52Q517.25-38.52 521.5-36.07Q525.74-33.62 528.16-29.2Q530.57-24.77 530.57-18.86L530.57-18.86Q530.57-18.43 530.53-17.86Q530.5-17.28 530.42-16.78L530.42-16.78L497.95-16.78L497.95-21.74L526.82-21.74L524.02-20.02Q524.09-23.69 522.5-26.57Q520.92-29.45 518.15-31.07Q515.38-32.69 511.7-32.69L511.7-32.69Q508.1-32.69 505.3-31.07Q502.49-29.45 500.9-26.53Q499.32-23.62 499.32-19.87L499.32-19.87L499.32-18.72Q499.32-14.9 501.08-11.92Q502.85-8.93 506.02-7.27Q509.18-5.62 513.29-5.62L513.29-5.62Q516.67-5.62 519.44-6.77Q522.22-7.92 524.3-10.22L524.3-10.22L528.12-5.76Q525.53-2.74 521.68-1.15Q517.82 0.43 513.07 0.43ZM547.06 0L540.14 0L540.14-38.16L546.77-38.16L546.77-27.79L546.12-30.38Q547.7-34.34 551.45-36.43Q555.19-38.52 560.66-38.52L560.66-38.52L560.66-31.82Q560.23-31.9 559.84-31.9Q559.44-31.9 559.08-31.9L559.08-31.9Q553.54-31.9 550.3-28.58Q547.06-25.27 547.06-19.01L547.06-19.01L547.06 0ZM595.94 0L589.03 0L589.03-38.16L595.94-38.16L595.94 0ZM592.49-45.5L592.49-45.5Q590.47-45.5 589.14-46.8Q587.81-48.1 587.81-49.97L587.81-49.97Q587.81-51.91 589.14-53.21Q590.47-54.5 592.49-54.5L592.49-54.5Q594.5-54.5 595.84-53.24Q597.17-51.98 597.17-50.11L597.17-50.11Q597.17-48.17 595.87-46.84Q594.58-45.5 592.49-45.5ZM625.75 0.43L625.75 0.43Q619.92 0.43 615.35-2.09Q610.78-4.61 608.18-9Q605.59-13.39 605.59-19.08L605.59-19.08Q605.59-24.77 608.18-29.16Q610.78-33.55 615.35-36.04Q619.92-38.52 625.75-38.52L625.75-38.52Q630.94-38.52 635-36.47Q639.07-34.42 641.3-30.38L641.3-30.38L636.05-27Q634.18-29.81 631.48-31.14Q628.78-32.47 625.68-32.47L625.68-32.47Q621.94-32.47 618.98-30.82Q616.03-29.16 614.3-26.17Q612.58-23.18 612.58-19.08L612.58-19.08Q612.58-14.98 614.3-11.95Q616.03-8.93 618.98-7.27Q621.94-5.62 625.68-5.62L625.68-5.62Q628.78-5.62 631.48-6.95Q634.18-8.28 636.05-11.09L636.05-11.09L641.3-7.78Q639.07-3.82 635-1.69Q630.94 0.43 625.75 0.43ZM666.58 0.43L666.58 0.43Q660.82 0.43 656.35-2.09Q651.89-4.61 649.3-9.04Q646.7-13.46 646.7-19.08L646.7-19.08Q646.7-24.77 649.3-29.16Q651.89-33.55 656.35-36.04Q660.82-38.52 666.58-38.52L666.58-38.52Q672.26-38.52 676.76-36.04Q681.26-33.55 683.82-29.2Q686.38-24.84 686.38-19.08L686.38-19.08Q686.38-13.39 683.82-9Q681.26-4.61 676.76-2.09Q672.26 0.43 666.58 0.43ZM666.58-5.62L666.58-5.62Q670.25-5.62 673.16-7.27Q676.08-8.93 677.74-11.99Q679.39-15.05 679.39-19.08L679.39-19.08Q679.39-23.18 677.74-26.17Q676.08-29.16 673.16-30.82Q670.25-32.47 666.58-32.47L666.58-32.47Q662.9-32.47 660.02-30.82Q657.14-29.16 655.42-26.17Q653.69-23.18 653.69-19.08L653.69-19.08Q653.69-15.05 655.42-11.99Q657.14-8.93 660.02-7.27Q662.9-5.62 666.58-5.62ZM702.86 0L695.95 0L695.95-38.16L702.58-38.16L702.58-27.86L701.5-30.6Q703.37-34.34 707.26-36.43Q711.14-38.52 716.33-38.52L716.33-38.52Q721.01-38.52 724.57-36.72Q728.14-34.92 730.15-31.25Q732.17-27.58 732.17-21.96L732.17-21.96L732.17 0L725.26 0L725.26-21.17Q725.26-26.71 722.56-29.52Q719.86-32.33 714.96-32.33L714.96-32.33Q711.29-32.33 708.55-30.89Q705.82-29.45 704.34-26.64Q702.86-23.83 702.86-19.66L702.86-19.66L702.86 0ZM781.34 0.43L781.34 0.43Q775.22 0.43 770.58-2.09Q765.94-4.61 763.38-9Q760.82-13.39 760.82-19.08L760.82-19.08Q760.82-24.77 763.31-29.16Q765.79-33.55 770.15-36.04Q774.5-38.52 779.98-38.52L779.98-38.52Q785.52-38.52 789.77-36.07Q794.02-33.62 796.43-29.2Q798.84-24.77 798.84-18.86L798.84-18.86Q798.84-18.43 798.8-17.86Q798.77-17.28 798.7-16.78L798.7-16.78L766.22-16.78L766.22-21.74L795.1-21.74L792.29-20.02Q792.36-23.69 790.78-26.57Q789.19-29.45 786.42-31.07Q783.65-32.69 779.98-32.69L779.98-32.69Q776.38-32.69 773.57-31.07Q770.76-29.45 769.18-26.53Q767.59-23.62 767.59-19.87L767.59-19.87L767.59-18.72Q767.59-14.9 769.36-11.92Q771.12-8.93 774.29-7.27Q777.46-5.62 781.56-5.62L781.56-5.62Q784.94-5.62 787.72-6.77Q790.49-7.92 792.58-10.22L792.58-10.22L796.39-5.76Q793.8-2.74 789.95-1.15Q786.1 0.43 781.34 0.43ZM838.66 0L832.1 0L832.1-8.06L831.74-9.58L831.74-23.33Q831.74-27.72 829.19-30.13Q826.63-32.54 821.52-32.54L821.52-32.54Q818.14-32.54 814.9-31.43Q811.66-30.31 809.42-28.44L809.42-28.44L806.54-33.62Q809.5-36 813.64-37.26Q817.78-38.52 822.31-38.52L822.31-38.52Q830.16-38.52 834.41-34.7Q838.66-30.89 838.66-23.04L838.66-23.04L838.66 0ZM819.58 0.43L819.58 0.43Q815.33 0.43 812.12-1.01Q808.92-2.45 807.19-5Q805.46-7.56 805.46-10.8L805.46-10.8Q805.46-13.9 806.94-16.42Q808.42-18.94 811.76-20.45Q815.11-21.96 820.8-21.96L820.8-21.96L832.9-21.96L832.9-16.99L821.09-16.99Q815.9-16.99 814.1-15.26Q812.3-13.54 812.3-11.09L812.3-11.09Q812.3-8.28 814.54-6.59Q816.77-4.9 820.73-4.9L820.73-4.9Q824.62-4.9 827.53-6.62Q830.45-8.35 831.74-11.66L831.74-11.66L833.11-6.91Q831.74-3.53 828.29-1.55Q824.83 0.43 819.58 0.43ZM862.42 0.43L862.42 0.43Q857.66 0.43 853.38-0.86Q849.1-2.16 846.65-4.03L846.65-4.03L849.53-9.5Q851.98-7.85 855.58-6.7Q859.18-5.54 862.92-5.54L862.92-5.54Q867.74-5.54 869.87-6.91Q871.99-8.28 871.99-10.73L871.99-10.73Q871.99-12.53 870.7-13.54Q869.4-14.54 867.28-15.05Q865.15-15.55 862.56-15.95Q859.97-16.34 857.38-16.96Q854.78-17.57 852.62-18.68Q850.46-19.8 849.17-21.78Q847.87-23.76 847.87-27.07L847.87-27.07Q847.87-30.53 849.82-33.12Q851.76-35.71 855.32-37.12Q858.89-38.52 863.78-38.52L863.78-38.52Q867.53-38.52 871.38-37.62Q875.23-36.72 877.68-35.06L877.68-35.06L874.73-29.59Q872.14-31.32 869.33-31.97Q866.52-32.62 863.71-32.62L863.71-32.62Q859.18-32.62 856.94-31.14Q854.71-29.66 854.71-27.36L854.71-27.36Q854.71-25.42 856.04-24.37Q857.38-23.33 859.5-22.75Q861.62-22.18 864.22-21.78Q866.81-21.38 869.4-20.77Q871.99-20.16 874.12-19.08Q876.24-18 877.57-16.06Q878.9-14.11 878.9-10.87L878.9-10.87Q878.9-7.42 876.89-4.9Q874.87-2.38 871.2-0.97Q867.53 0.43 862.42 0.43ZM894.46 0L887.54 0L887.54-38.16L894.46-38.16L894.46 0ZM891-45.5L891-45.5Q888.98-45.5 887.65-46.8Q886.32-48.1 886.32-49.97L886.32-49.97Q886.32-51.91 887.65-53.21Q888.98-54.5 891-54.5L891-54.5Q893.02-54.5 894.35-53.24Q895.68-51.98 895.68-50.11L895.68-50.11Q895.68-48.17 894.38-46.84Q893.09-45.5 891-45.5ZM914.54 0L907.63 0L907.63-53.42L914.54-53.42L914.54 0ZM929.38 14.4L929.38 14.4Q926.64 14.4 924.05 13.5Q921.46 12.6 919.58 10.87L919.58 10.87L922.54 5.69Q923.98 7.06 925.7 7.78Q927.43 8.5 929.38 8.5L929.38 8.5Q931.9 8.5 933.55 7.2Q935.21 5.9 936.65 2.59L936.65 2.59L939.02-2.66L939.74-3.53L954.72-38.16L961.49-38.16L942.98 3.82Q941.33 7.85 939.28 10.15Q937.22 12.46 934.78 13.43Q932.33 14.4 929.38 14.4ZM943.06-4.18L938.45 1.22L921.02-38.16L928.22-38.16L943.06-4.18ZM969.62 0.43L969.62 0.43Q967.61 0.43 966.17-0.97Q964.73-2.38 964.73-4.54L964.73-4.54Q964.73-6.7 966.17-8.06Q967.61-9.43 969.62-9.43L969.62-9.43Q971.57-9.43 972.97-8.06Q974.38-6.7 974.38-4.54L974.38-4.54Q974.38-2.38 972.97-0.97Q971.57 0.43 969.62 0.43Z"></path></svg>
</svg>